# xmcd CD database file
#
# Track frame offsets:
#	150
#	28698
#	68284
#	92115
#	120829
#	156846
#	187173
#	221870
#	245064
#	281885
#	313405
#
# Disc length: 4438 seconds
#
# Revision: 4
# Processed by: cddbd v1.5.2PL0 Copyright (c) Steve Scherf et al.
# Submitted via: CDex 1.74
#
DISCID=a411540b
DTITLE=Various Artist - BT  Rare And Remixed  Disc 1
DYEAR=2001
DGENRE=Trance
TTITLE0=Remember (ESCM 12" Mix) - BT
TTITLE1=Forbidden Fruit (BT and PvD's Food Of Love Mix) - Paul Van Dyk
TTITLE2=Transway - Dharma
TTITLE3=Shame (Way Out West Mix) - BT
TTITLE4=Not Over Yet (BT's Spirit Of Grace) - Grace
TTITLE5=Let There Be Light (BT Mix) - Mike Oldfield
TTITLE6=Anomaly  Calling Your Name - Libra Presents Taylor
TTITLE7=I'm Alive (BT and Sasha Mix) - Seal
TTITLE8=Heart Of Imagination - Sasha and BT
TTITLE9=The Dream - Prana
TTITLE10=Elastic Reality - Cassa De X
EXTD=YEAR: 2001
EXTT0=
EXTT1=
EXTT2=
EXTT3=
EXTT4=
EXTT5=
EXTT6=
EXTT7=
EXTT8=
EXTT9=
EXTT10=
PLAYORDER=
